<svg width="28" height="28" viewBox="0 0 28 28" fill="none" xmlns="http://www.w3.org/2000/svg">
<path d="M8.75 25.375C9.7165 25.375 10.5 24.5915 10.5 23.625C10.5 22.6585 9.7165 21.875 8.75 21.875C7.7835 21.875 7 22.6585 7 23.625C7 24.5915 7.7835 25.375 8.75 25.375Z" fill="#202020"/>
<path d="M20.125 25.375C21.0915 25.375 21.875 24.5915 21.875 23.625C21.875 22.6585 21.0915 21.875 20.125 21.875C19.1585 21.875 18.375 22.6585 18.375 23.625C18.375 24.5915 19.1585 25.375 20.125 25.375Z" fill="#202020"/>
<path d="M4.62656 7.875H24.2484L21.3609 17.9812C21.2579 18.348 21.0373 18.6708 20.733 18.9C20.4287 19.1293 20.0575 19.2522 19.6766 19.25H9.19844C8.81747 19.2522 8.44631 19.1293 8.14201 18.9C7.8377 18.6708 7.61709 18.348 7.51406 17.9812L3.55469 4.13438C3.50237 3.95145 3.39185 3.79056 3.23987 3.67609C3.0879 3.56162 2.90276 3.4998 2.7125 3.5H0.875" stroke="#202020" stroke-width="1.5" stroke-linecap="round" stroke-linejoin="round"/>
</svg>
