<svg width="17" height="16" viewBox="0 0 17 16" fill="none" xmlns="http://www.w3.org/2000/svg">
<path d="M16.6482 5.46484L8.77316 0.214841C8.69228 0.160878 8.59723 0.13208 8.5 0.13208C8.40277 0.13208 8.30772 0.160878 8.22684 0.214841L0.351836 5.46484C0.284356 5.50986 0.229049 5.57087 0.190837 5.64243C0.152625 5.71398 0.132693 5.79388 0.132813 5.875V14.4062C0.132813 14.7108 0.253809 15.0029 0.469183 15.2183C0.684556 15.4337 0.976666 15.5547 1.28125 15.5547H15.7188C16.0233 15.5547 16.3154 15.4337 16.5308 15.2183C16.7462 15.0029 16.8672 14.7108 16.8672 14.4062V5.875C16.8673 5.79388 16.8474 5.71398 16.8092 5.64243C16.771 5.57087 16.7156 5.50986 16.6482 5.46484ZM8.5 1.21644L15.5079 5.89222L9.77395 9.97656H7.22606L1.49207 5.88894L8.5 1.21644ZM15.7188 14.5703H1.28125C1.23774 14.5703 1.19601 14.553 1.16524 14.5223C1.13447 14.4915 1.11719 14.4498 1.11719 14.4062V6.83066L6.78227 10.8699C6.86602 10.929 6.96602 10.9608 7.06856 10.9609H9.93145C10.034 10.9608 10.134 10.929 10.2177 10.8699L15.8828 6.83066V14.4062C15.8828 14.4498 15.8655 14.4915 15.8348 14.5223C15.804 14.553 15.7623 14.5703 15.7188 14.5703Z" fill="#8A4571"/>
</svg>
