<svg width="12" height="12" viewBox="0 0 12 12" fill="none" xmlns="http://www.w3.org/2000/svg">
<path d="M8.43565 11.2786C8.24811 11.4661 7.99376 11.5714 7.72854 11.5714H4.27125C4.00604 11.5714 3.75168 11.4661 3.56415 11.2786L0.72136 8.43577C0.533823 8.24823 0.428467 7.99388 0.428467 7.72866V4.27137C0.428467 4.00616 0.533824 3.7518 0.72136 3.56427L3.56415 0.721482C3.75168 0.533945 4.00604 0.428589 4.27125 0.428589H7.72854C7.99376 0.428589 8.24811 0.533946 8.43565 0.721482L11.2784 3.56427C11.466 3.7518 11.5713 4.00616 11.5713 4.27137V7.72866C11.5713 7.99388 11.466 8.24823 11.2784 8.43577L8.43565 11.2786Z" stroke="#D61818" stroke-width="0.8" stroke-linecap="round" stroke-linejoin="round"/>
<path d="M6 3.42859V6.2143" stroke="#D61818" stroke-width="0.8" stroke-linecap="round" stroke-linejoin="round"/>
<path d="M5.99993 8.57139C5.88158 8.57139 5.78564 8.47545 5.78564 8.35711C5.78564 8.23876 5.88158 8.14282 5.99993 8.14282" stroke="#D61818" stroke-linecap="round" stroke-linejoin="round"/>
<path d="M6 8.57139C6.11835 8.57139 6.21429 8.47545 6.21429 8.35711C6.21429 8.23876 6.11835 8.14282 6 8.14282" stroke="#D61818" stroke-linecap="round" stroke-linejoin="round"/>
</svg>
