<svg width="13" height="12" viewBox="0 0 13 12" fill="none" xmlns="http://www.w3.org/2000/svg">
<path d="M1.33667 10.5V1.49996C1.33667 1.27263 1.42657 1.05462 1.58659 0.893871C1.74661 0.733126 1.96365 0.64282 2.18995 0.64282H5.33856C5.53348 0.637115 5.72446 0.698648 5.87972 0.817174C6.03497 0.935701 6.14513 1.10407 6.19184 1.29425L6.45636 2.35711H11.5761C11.8024 2.35711 12.0194 2.44741 12.1794 2.60816C12.3394 2.7689 12.4293 2.98692 12.4293 3.21425V10.5C12.4293 10.7273 12.3394 10.9453 12.1794 11.1061C12.0194 11.2668 11.8024 11.3571 11.5761 11.3571H2.18995C1.96365 11.3571 1.74661 11.2668 1.58659 11.1061C1.42657 10.9453 1.33667 10.7273 1.33667 10.5Z" stroke="#1EA82C" stroke-width="0.8" stroke-linecap="round" stroke-linejoin="round"/>
<path d="M4.74976 7.71425L6.02968 8.57139L8.58952 5.14282" stroke="#1EA82C" stroke-width="0.8" stroke-linecap="round" stroke-linejoin="round"/>
</svg>
