<svg width="42" height="42" viewBox="0 0 42 42" fill="none" xmlns="http://www.w3.org/2000/svg">
<rect width="42" height="42" fill="white"/>
<path d="M23.0321 28.4517V28.2539C23.0321 26.7174 22.8453 25.1926 22.4847 23.7097H19.5151C19.1545 25.1926 18.9676 26.7174 18.9676 28.2539V28.4517L17.6128 27.5486V41.3226H24.387V27.5486L23.0321 28.4517Z" fill="#8A4571"/>
<path d="M13.8553 8.86668C14.5314 8.12311 14.9032 7.15957 14.9032 6.15502V6.06307C14.9032 3.84028 13.0952 2.03229 10.8724 2.03229C9.79612 2.03229 8.78396 2.45171 8.02252 3.21314L7.45161 3.78405L6.8807 3.21314C6.11927 2.45171 5.10711 2.03229 4.03078 2.03229C1.808 2.03229 0 3.84028 0 6.06307V6.15502C0 7.15957 0.371787 8.12311 1.04788 8.86668L7.45161 15.9098L13.8553 8.86668ZM1.35484 6.15502V6.06307C1.35484 4.58749 2.55521 3.38713 4.03078 3.38713C4.74524 3.38713 5.41737 3.66564 5.92279 4.17105L7.45161 5.69988L8.9811 4.17105C9.48586 3.66564 10.158 3.38713 10.8724 3.38713C12.348 3.38713 13.5484 4.58749 13.5484 6.06307V6.15502C13.5484 6.82219 13.301 7.4619 12.8528 7.95508L7.45161 13.8967L2.05045 7.95508C1.60226 7.4619 1.35484 6.82219 1.35484 6.15502Z" fill="#1C1C1C"/>
<path d="M37.9691 27.7742C36.8928 27.7742 35.8806 28.1936 35.1192 28.955L34.5483 29.5259L33.978 28.9557C33.7442 28.7212 33.4759 28.531 33.1935 28.3616V24.3871H34.5483C35.2955 24.3871 35.9031 23.7795 35.9031 23.0322V20.3226C35.9031 19.5754 35.2955 18.9677 34.5483 18.9677H31.0676C31.5697 18.196 31.8386 17.3046 31.8386 16.3827V16.258C31.8386 15.238 31.5012 14.2278 30.8903 13.4134C29.9995 12.2253 28.5809 11.5161 27.0967 11.5161C25.6125 11.5161 24.1938 12.2253 23.3031 13.4134C22.7685 14.1262 22.2979 14.8903 21.892 15.6828C21.6049 15.618 21.3069 15.5806 20.9999 15.5806C20.693 15.5806 20.3949 15.618 20.1072 15.6822C19.7013 14.8903 19.2313 14.1256 18.6967 13.4128C17.806 12.2253 16.3873 11.5161 14.9031 11.5161C13.419 11.5161 12.0003 12.2253 11.1095 13.4128C10.4986 14.2278 10.1612 15.238 10.1612 16.258V16.3827C10.1612 17.3046 10.4301 18.196 10.9322 18.9677H7.45152C6.70431 18.9677 6.09668 19.5754 6.09668 20.3226V23.0322C6.09668 23.7795 6.70431 24.3871 7.45152 24.3871H8.80636V42H33.1935V40.1622L34.5483 41.6523L40.952 34.6092C41.6281 33.865 41.9999 32.9015 41.9999 31.8969V31.805C41.9999 29.5822 40.1919 27.7742 37.9691 27.7742ZM34.5483 23.0322H26.7348C26.3442 22.0647 25.8226 21.1538 25.1871 20.3226H34.5483V23.0322ZM15.9275 18.9677L14.3388 16.7565C14.2651 16.6454 14.2257 16.5161 14.2257 16.3827V16.258C14.2257 16.1125 14.2737 15.968 14.3613 15.8515C14.616 15.5115 15.1896 15.5115 15.4456 15.8529C15.8644 16.4099 16.2335 17.0072 16.5418 17.6258L17.0574 18.6737C17.0336 18.7706 17.0135 18.8682 16.9963 18.9671H15.9275V18.9677ZM19.9385 20.3226C18.9974 22.4957 18.4447 24.8402 18.318 27.2046L16.9354 26.2824L15.737 27.0819L15.8306 26.2384C16.0764 24.0239 17.0568 21.9367 18.5869 20.3232H19.9385V20.3226ZM20.9999 21.3129C21.2268 21.8765 21.4299 22.4491 21.6009 23.0322H20.3989C20.5699 22.4491 20.773 21.8765 20.9999 21.3129ZM22.0614 20.3226H23.4129C24.943 21.9367 25.9234 24.0232 26.1692 26.2377L26.2628 27.0812L25.0644 26.2824L23.6811 27.2046C23.5551 24.8402 23.0024 22.4957 22.0614 20.3226ZM24.9424 18.6743L25.4567 17.6298C25.767 17.0079 26.1361 16.4105 26.5549 15.8529C26.8102 15.5128 27.3838 15.5122 27.6385 15.8522C27.7261 15.969 27.7741 16.1132 27.7741 16.2587V16.3834C27.7741 16.5167 27.7347 16.647 27.6739 16.739L26.0723 18.9677H25.0036C24.9864 18.8688 24.9662 18.7706 24.9424 18.6743ZM24.387 14.2258C25.0231 13.3777 26.0359 12.871 27.0967 12.871C28.1575 12.871 29.1703 13.3777 29.8064 14.2265C30.2433 14.8076 30.4838 15.5297 30.4838 16.258V16.3827C30.4838 17.0532 30.2866 17.7029 29.9149 18.2612L29.4438 18.9677H27.7397L28.7869 17.51C29.0112 17.1753 29.1289 16.785 29.1289 16.3827V16.258C29.1289 15.8204 28.9847 15.3881 28.7218 15.0382C28.3404 14.5294 27.7328 14.2258 27.0967 14.2258C26.4606 14.2258 25.853 14.5301 25.4709 15.0395C25.0036 15.662 24.5908 16.3298 24.2428 17.0284L24.1905 17.1346C23.9014 16.7674 23.5498 16.4532 23.1529 16.2038C23.5111 15.5141 23.9209 14.8483 24.387 14.2258ZM23.6133 18.9677H18.3865C18.6891 17.8018 19.7413 16.9355 20.9999 16.9355C22.2585 16.9355 23.3107 17.8018 23.6133 18.9677ZM12.085 18.2612C11.7132 17.7029 11.516 17.0532 11.516 16.3827V16.258C11.516 15.5297 11.7565 14.8076 12.1935 14.2258C12.8295 13.3777 13.8423 12.871 14.9031 12.871C15.9639 12.871 16.9767 13.3777 17.6128 14.2258C18.0789 14.8483 18.4887 15.5141 18.8479 16.2031C18.4507 16.4525 18.099 16.7668 17.8099 17.1339L17.7557 17.0241C17.4091 16.3298 16.9963 15.6613 16.5289 15.0395C16.1468 14.5301 15.5392 14.2258 14.9031 14.2258C14.2671 14.2258 13.6594 14.5294 13.2781 15.0382C13.0151 15.3881 12.8709 15.8204 12.8709 16.258V16.3827C12.8709 16.7856 12.9886 17.1753 13.2258 17.5282L14.2601 18.9677H12.556L12.085 18.2612ZM7.45152 20.3226H16.8127C16.1773 21.1538 15.6556 22.0647 15.265 23.0322H7.45152V20.3226ZM10.1612 40.6451V24.3871H14.8125C14.6633 24.9448 14.5489 25.5117 14.4844 26.0889L14.0693 29.822L16.9354 27.9111L19.6451 29.7171V28.2538C19.6451 26.9552 19.7913 25.6579 20.0625 24.3871H21.938C22.2092 25.6579 22.3554 26.9559 22.3554 28.2538V29.7171L25.0651 27.9111L27.9312 29.8213L27.5161 26.0882C27.4516 25.5117 27.3372 24.9438 27.188 24.3864H31.8386V40.6445H10.1612V40.6451ZM40.6451 31.8969C40.6451 32.5641 40.3977 33.2038 39.9495 33.697L34.5483 39.6386L33.1935 38.1482V30.0869L34.5483 31.4418L36.0778 29.9129C36.5825 29.4075 37.2547 29.129 37.9691 29.129C39.4447 29.129 40.6451 30.3294 40.6451 31.805V31.8969Z" fill="#1C1C1C"/>
<path d="M27.7742 8.40953L23.7917 4.42704C23.3018 3.93717 23.0322 3.28621 23.0322 2.59325C23.0322 1.16365 24.1959 0 25.6255 0C26.3178 0 26.9694 0.269579 27.4593 0.759451L27.7742 1.07434L28.0891 0.759451C28.5789 0.269579 29.2299 0 29.9229 0C31.3524 0 32.5161 1.16365 32.5161 2.59325C32.5161 3.28555 32.2465 3.93717 31.7566 4.42704L27.7742 8.40953Z" fill="#8A4571"/>
<path d="M4.06452 41.6031L0.619204 38.1578C0.225586 37.7642 0 37.2194 0 36.6628C0 35.4968 0.948321 34.5485 2.11429 34.5485C2.67098 34.5485 3.21576 34.774 3.60938 35.1677L4.06452 35.6228L4.51966 35.1677C4.91328 34.774 5.45806 34.5485 6.01474 34.5485C7.18071 34.5485 8.12903 35.4968 8.12903 36.6628C8.12903 37.2194 7.90345 37.7642 7.50983 38.1578L4.06452 41.6031Z" fill="#8A4571"/>
<path d="M37.9354 20.603L34.4901 17.1577C34.0964 16.7641 33.8708 16.2193 33.8708 15.6626C33.8708 14.4967 34.8192 13.5483 35.9851 13.5483C36.5418 13.5483 37.0866 13.7739 37.4802 14.1675L37.9354 14.6227L38.3905 14.1675C38.7841 13.7739 39.3289 13.5483 39.8856 13.5483C41.0516 13.5483 41.9999 14.4967 41.9999 15.6626C41.9999 16.2193 41.7743 16.7641 41.3807 17.1577L37.9354 20.603Z" fill="#8A4571"/>
</svg>
