<svg width="42" height="42" viewBox="0 0 42 42" fill="none" xmlns="http://www.w3.org/2000/svg">
<rect width="42" height="42" fill="white"/>
<path d="M10.1614 10.8387C9.04096 10.8387 8.12915 9.92688 8.12915 8.80643C8.12915 7.68598 9.04096 6.77417 10.1614 6.77417C11.2819 6.77417 12.1937 7.68598 12.1937 8.80643C12.1937 9.92688 11.2819 10.8387 10.1614 10.8387Z" fill="#8A4571"/>
<path d="M37.2581 28.4515C36.1376 28.4515 35.2258 27.5397 35.2258 26.4192C35.2258 25.2988 36.1376 24.387 37.2581 24.387C38.3785 24.387 39.2903 25.2988 39.2903 26.4192C39.2903 27.5397 38.3785 28.4515 37.2581 28.4515Z" fill="#8A4571"/>
<path d="M28.4516 13.5484C25.4635 13.5484 23.0322 11.1172 23.0322 8.12907C23.0322 5.14097 25.4635 2.70972 28.4516 2.70972C31.4397 2.70972 33.8709 5.14097 33.8709 8.12907C33.8709 11.1172 31.4397 13.5484 28.4516 13.5484Z" fill="#8A4571"/>
<path d="M25.0644 42C22.4496 42 20.3225 39.8722 20.3225 37.258C20.3225 34.6439 22.4496 32.5161 25.0644 32.5161C27.6793 32.5161 29.8064 34.6439 29.8064 37.258C29.8064 39.8722 27.6793 42 25.0644 42ZM25.0644 35.9032C24.3173 35.9032 23.7096 36.5109 23.7096 37.258C23.7096 38.0052 24.3173 38.6129 25.0644 38.6129C25.8116 38.6129 26.4193 38.0052 26.4193 37.258C26.4193 36.5109 25.8116 35.9032 25.0644 35.9032Z" fill="#8A4571"/>
<path d="M8.80639 42C6.19155 42 4.06445 39.8722 4.06445 37.258C4.06445 34.6439 6.19155 32.5161 8.80639 32.5161C11.4212 32.5161 13.5483 34.6439 13.5483 37.258C13.5483 39.8722 11.4212 42 8.80639 42ZM8.80639 35.9032C8.05919 35.9032 7.45155 36.5109 7.45155 37.258C7.45155 38.0052 8.05919 38.6129 8.80639 38.6129C9.55358 38.6129 10.1612 38.0052 10.1612 37.258C10.1612 36.5109 9.55358 35.9032 8.80639 35.9032Z" fill="#8A4571"/>
<path d="M13.4941 37.9354C13.425 38.4137 13.2854 38.8689 13.0842 39.2903H20.7865C20.5853 38.8689 20.4457 38.4137 20.3766 37.9354H13.4941Z" fill="#1C1C1C"/>
<path d="M37.9057 21.7269C37.9158 21.4843 37.9355 21.2418 37.9355 21C37.9355 17.9123 37.0928 14.9107 35.5103 12.2816C36.2033 11.0623 36.5806 9.67151 36.5806 8.2618V8.12903C36.5806 3.64655 32.9341 0 28.4516 0C25.4452 0 22.8202 1.64477 21.4139 4.07806C18.7875 4.01777 16.1212 4.578 13.7408 5.7059C12.8703 4.70264 11.59 4.06451 10.1613 4.06451C7.54645 4.06451 5.41935 6.19229 5.41935 8.80645C5.41935 9.82664 5.75671 10.8367 6.36774 11.6509L6.64819 12.0249C5.08268 14.5239 4.2061 17.3683 4.08958 20.3226H2.70968C1.96248 20.3226 1.35484 20.9302 1.35484 21.6774V35.2258C0.607645 35.2258 0 35.8334 0 36.5806V37.9355C0 38.6827 0.607645 39.2903 1.35484 39.2903H4.52855C4.32735 38.869 4.18781 38.4137 4.11871 37.9355H1.35484V36.5806H4.11871C4.18781 36.1024 4.32735 35.6471 4.52855 35.2258H2.70968V21.6774H8.12903V26.838L11.5161 25.1444L14.9032 26.838V21.6774H20.3226V35.2258H13.0844C13.2855 35.6471 13.4251 36.1024 13.4942 36.5806H20.3768C20.4438 36.1132 20.5814 35.6702 20.7744 35.257C21.002 34.7706 21.3055 34.3255 21.6774 33.9455V25.7419H28.0709C28.3818 25.7419 28.6528 25.9533 28.728 26.2547L28.9387 27.0968H25.7419C24.9947 27.0968 24.3871 27.7044 24.3871 28.4516V29.8064C24.3871 30.5536 24.9947 31.1613 25.7419 31.1613H29.9548L30.9709 35.2258H29.3424C29.5436 35.6471 29.6832 36.1024 29.7523 36.5806H31.1613V37.9355H29.7523C29.6832 38.4137 29.5436 38.869 29.3424 39.2903H31.1613C31.9085 39.2903 32.5161 38.6827 32.5161 37.9355V36.0699C32.5161 35.9046 32.4958 35.7393 32.4558 35.5767L32.0223 33.8425C33.0316 32.9761 33.9319 31.9992 34.7103 30.9249L37.2581 34.3228L41.0516 29.2645C41.6633 28.4496 42 27.4389 42 26.4193C42 24.0253 40.2143 22.0446 37.9057 21.7269ZM28.4516 1.35484C32.1869 1.35484 35.2258 4.39374 35.2258 8.12903V8.26113C35.2258 9.77177 34.7116 11.2587 33.7782 12.4462L28.4516 19.2265L23.1251 12.4462C22.1916 11.2587 21.6774 9.77245 21.6774 8.26113V8.12903C21.6774 4.39374 24.7163 1.35484 28.4516 1.35484ZM10.1613 5.41935C12.0289 5.41935 13.5484 6.9388 13.5484 8.80645C13.5484 9.53467 13.3079 10.2568 12.871 10.838L10.1613 14.4514L7.45161 10.838C7.01468 10.2568 6.77419 9.53467 6.77419 8.80645C6.77419 6.9388 8.29364 5.41935 10.1613 5.41935ZM13.5484 24.6459L11.5161 23.6297L9.48387 24.6459V21.6774H13.5484V24.6459ZM25.7419 29.8064V28.4516H29.2774L29.6161 29.8064H25.7419ZM31.6524 32.3637L30.0429 25.9262C29.8159 25.0205 29.0051 24.3871 28.0709 24.3871H21.6774V21.6774C21.6774 20.9302 21.0698 20.3226 20.3226 20.3226H5.44374C5.55213 17.7985 6.25935 15.3625 7.52139 13.19L10.1613 16.7099L13.9548 11.6516C14.5665 10.8367 14.9032 9.82596 14.9032 8.80645C14.9032 8.10938 14.7481 7.4489 14.4764 6.85209C16.4613 5.93284 18.5816 5.45322 20.7941 5.42545C20.4946 6.2729 20.3226 7.17997 20.3226 8.12903V8.26113C20.3226 10.0746 20.9397 11.8589 22.0595 13.2835L28.4516 21.4186L34.6635 13.5125C35.9188 15.7994 36.5806 18.3669 36.5806 21C36.5806 21.2445 36.5617 21.4904 36.5508 21.7363C34.2713 22.0798 32.5161 24.0457 32.5161 26.4193C32.5161 27.4395 32.8535 28.4496 33.4645 29.2638L33.8554 29.7854C33.2139 30.7223 32.4802 31.5881 31.6524 32.3637ZM39.9677 28.4509L37.2581 32.0643L34.5484 28.4509C34.1114 27.8697 33.871 27.1476 33.871 26.4193C33.871 24.5517 35.3904 23.0322 37.2581 23.0322C39.1257 23.0322 40.6452 24.5517 40.6452 26.4193C40.6452 27.1476 40.4047 27.8697 39.9677 28.4509Z" fill="#1C1C1C"/>
<path d="M16.2581 17.6129H17.6129V18.9678H16.2581V17.6129Z" fill="#1C1C1C"/>
<path d="M18.9678 17.6129H20.3226V18.9678H18.9678V17.6129Z" fill="#1C1C1C"/>
<path d="M21.6775 17.6129H23.0323V18.9678H21.6775V17.6129Z" fill="#1C1C1C"/>
<path d="M25.0645 35.2258C23.944 35.2258 23.0322 36.1376 23.0322 37.2581C23.0322 38.3785 23.944 39.2903 25.0645 39.2903C26.1849 39.2903 27.0967 38.3785 27.0967 37.2581C27.0967 36.1376 26.1849 35.2258 25.0645 35.2258ZM25.0645 37.9355C24.6912 37.9355 24.3871 37.632 24.3871 37.2581C24.3871 36.8842 24.6912 36.5807 25.0645 36.5807C25.4377 36.5807 25.7419 36.8842 25.7419 37.2581C25.7419 37.632 25.4377 37.9355 25.0645 37.9355Z" fill="#1C1C1C"/>
<path d="M8.80643 35.2258C7.68598 35.2258 6.77417 36.1376 6.77417 37.2581C6.77417 38.3785 7.68598 39.2903 8.80643 39.2903C9.92688 39.2903 10.8387 38.3785 10.8387 37.2581C10.8387 36.1376 9.92688 35.2258 8.80643 35.2258ZM8.80643 37.9355C8.43317 37.9355 8.12901 37.632 8.12901 37.2581C8.12901 36.8842 8.43317 36.5807 8.80643 36.5807C9.17969 36.5807 9.48385 36.8842 9.48385 37.2581C9.48385 37.632 9.17969 37.9355 8.80643 37.9355Z" fill="#1C1C1C"/>
</svg>
