<svg width="42" height="42" viewBox="0 0 42 42" fill="none" xmlns="http://www.w3.org/2000/svg">
<rect width="42" height="42" fill="white"/>
<path d="M28.4516 25.0645H18.9678V28.4516H28.4516V25.0645Z" fill="#8A4571"/>
<path d="M16.9356 14.7589C15.7663 13.9961 14.3715 13.5483 12.871 13.5483C8.75572 13.5483 5.41943 16.8846 5.41943 21C5.41943 25.1153 8.75572 28.4516 12.871 28.4516C14.3715 28.4516 15.7663 28.0038 16.9356 27.241V14.7589Z" fill="#8A4571"/>
<path d="M41.3226 16.258H16.9355V21.6774H41.3226V16.258Z" fill="#8A4571"/>
<path d="M14.9032 2.70972H9.48389V4.06456H14.9032V2.70972Z" fill="#1C1C1C"/>
<path d="M17.6129 2.70972H16.2581V4.06456H17.6129V2.70972Z" fill="#1C1C1C"/>
<path d="M8.12901 2.70972H6.77417V4.06456H8.12901V2.70972Z" fill="#1C1C1C"/>
<path d="M14.2259 37.9354H10.1614V39.2903H14.2259V37.9354Z" fill="#1C1C1C"/>
<path d="M39.9677 12.1935H24.3871V3.3871C24.3871 1.51945 22.8676 0 21 0H3.3871C1.51945 0 0 1.51945 0 3.3871V38.6129C0 40.4805 1.51945 42 3.3871 42H21C22.8676 42 24.3871 40.4805 24.3871 38.6129V31.1613H39.9677C41.0882 31.1613 42 30.2495 42 29.129V14.2258C42 13.1054 41.0882 12.1935 39.9677 12.1935ZM3.3871 1.35484H21C22.1205 1.35484 23.0323 2.26665 23.0323 3.3871V5.41935H1.35484V3.3871C1.35484 2.26665 2.26665 1.35484 3.3871 1.35484ZM21 40.6452H3.3871C2.26665 40.6452 1.35484 39.7334 1.35484 38.6129V36.5806H23.0323V38.6129C23.0323 39.7334 22.1205 40.6452 21 40.6452ZM23.0323 35.2258H1.35484V6.77419H23.0323V12.1935H21.6774V8.12903H2.70968V33.871H21.6774V31.1613H23.0323V35.2258ZM40.6452 29.129C40.6452 29.503 40.341 29.8065 39.9677 29.8065H21L20.3226 29.8688V32.5161H4.06452V9.48387H20.3226V12.1935H18.2903C17.1699 12.1935 16.2581 13.1054 16.2581 14.2258V29.129C16.2581 30.2495 17.1699 31.1613 18.2903 31.1613H18.9677V29.8065H18.2903C17.9171 29.8065 17.6129 29.503 17.6129 29.129V14.2258C17.6129 13.8519 17.9171 13.5484 18.2903 13.5484H39.9677C40.341 13.5484 40.6452 13.8519 40.6452 14.2258V29.129Z" fill="#1C1C1C"/>
<path d="M36.5807 23.0322C36.0855 23.0322 35.6276 23.1752 35.2279 23.4082C34.8154 23.1657 34.35 23.0322 33.8711 23.0322C32.3767 23.0322 31.1614 24.2475 31.1614 25.7419C31.1614 27.2363 32.3767 28.4516 33.8711 28.4516C34.35 28.4516 34.8154 28.3181 35.2279 28.0756C35.6276 28.3086 36.0855 28.4516 36.5807 28.4516C38.0751 28.4516 39.2904 27.2363 39.2904 25.7419C39.2904 24.2475 38.0751 23.0322 36.5807 23.0322ZM32.5162 25.7419C32.5162 24.9947 33.1239 24.3871 33.8711 24.3871C33.9998 24.3871 34.1136 24.4087 34.2199 24.4385C34.0045 24.8267 33.8711 25.267 33.8711 25.7419C33.8711 26.2168 34.0045 26.6571 34.2199 27.0453C34.1136 27.0751 33.9998 27.0967 33.8711 27.0967C33.1239 27.0967 32.5162 26.4891 32.5162 25.7419ZM36.5807 27.0967C35.8335 27.0967 35.2259 26.4891 35.2259 25.7419C35.2259 24.9947 35.8335 24.3871 36.5807 24.3871C37.3279 24.3871 37.9356 24.9947 37.9356 25.7419C37.9356 26.4891 37.3279 27.0967 36.5807 27.0967Z" fill="#1C1C1C"/>
<path d="M20.3226 27.0967H18.9678V28.4515H20.3226V27.0967Z" fill="#1C1C1C"/>
<path d="M23.0323 27.0967H21.6775V28.4515H23.0323V27.0967Z" fill="#1C1C1C"/>
<path d="M25.7418 27.0967H24.387V28.4515H25.7418V27.0967Z" fill="#1C1C1C"/>
<path d="M28.4515 27.0967H27.0967V28.4515H28.4515V27.0967Z" fill="#1C1C1C"/>
<path d="M28.4516 24.3871H18.9678V25.7419H28.4516V24.3871Z" fill="#1C1C1C"/>
<path d="M12.8709 18.9677C13.2441 18.9677 13.5483 19.2712 13.5483 19.6452H14.9031C14.9031 18.7632 14.3348 18.018 13.5483 17.7375V16.2581H12.1935V17.7375C11.407 18.018 10.8386 18.7632 10.8386 19.6452C10.8386 20.7656 11.7504 21.6774 12.8709 21.6774C13.2441 21.6774 13.5483 21.9809 13.5483 22.3548C13.5483 22.7288 13.2441 23.0322 12.8709 23.0322C12.4976 23.0322 12.1935 22.7288 12.1935 22.3548H10.8386C10.8386 23.2368 11.407 23.982 12.1935 24.2624V25.7419H13.5483V24.2624C14.3348 23.982 14.9031 23.2368 14.9031 22.3548C14.9031 21.2344 13.9913 20.3226 12.8709 20.3226C12.4976 20.3226 12.1935 20.0191 12.1935 19.6452C12.1935 19.2712 12.4976 18.9677 12.8709 18.9677Z" fill="#1C1C1C"/>
</svg>
