<svg width="42" height="42" viewBox="0 0 42 42" fill="none" xmlns="http://www.w3.org/2000/svg">
<rect width="42" height="42" fill="white"/>
<path d="M7.94154 41.635L6.35634 35.2956L0 36.8841L5.88045 27.2878L7.03301 27.9942L2.88107 34.771L7.34059 33.6556L8.45935 38.132L13.0385 30.4697L14.1992 31.1632L7.94154 41.635Z" fill="#1C1C1C"/>
<path d="M21.9791 41.635L15.7214 31.1632L16.8821 30.4697L21.4613 38.132L22.58 33.6556L27.0396 34.771L22.8876 27.9942L24.0402 27.2878L29.9206 36.8841L23.5643 35.2956L21.9791 41.635Z" fill="#1C1C1C"/>
<path d="M14.9604 27.0397C9.36052 27.0397 4.82056 22.4997 4.82056 16.8998C4.82056 11.2999 9.36052 6.75995 14.9604 6.75995C17.8983 6.75995 20.5441 8.00918 22.3963 10.0061V4.02016L22.3666 4.00326C21.1343 3.29144 19.6403 3.30158 18.4235 3.97419C17.7063 2.7831 16.4057 2.02802 14.9266 2.02802C13.5037 2.02802 12.2125 2.7831 11.4966 3.97419C10.2805 3.29955 8.78592 3.29212 7.55427 4.00326L7.49478 4.03774C6.26313 4.74888 5.52292 6.04813 5.4979 7.4373C4.10874 7.46231 2.80949 8.20252 2.09834 9.43417L2.06387 9.49366C1.35273 10.7253 1.36219 12.2206 2.0348 13.436C0.843705 14.1526 0.088623 15.4431 0.088623 16.8653V16.9336C0.088623 18.3566 0.843705 19.6477 2.0348 20.3636C1.36151 21.579 1.35273 23.0736 2.06387 24.306L2.09834 24.3655C2.81016 25.5971 4.10942 26.3373 5.4979 26.3623C5.52292 27.7515 6.26313 29.0508 7.49478 29.7619L7.55427 29.7964C8.78592 30.5068 10.2819 30.4981 11.4973 29.8254C12.2146 31.0165 13.5152 31.7716 14.9942 31.7716C16.4172 31.7716 17.7083 31.0165 18.4242 29.8254C19.6396 30.4981 21.1343 30.5068 22.3666 29.7964L22.4261 29.7619C23.6577 29.0501 24.3979 27.7508 24.423 26.3623C25.8128 26.3373 27.112 25.5971 27.8225 24.3655L27.857 24.306C28.5688 23.0743 28.5593 21.579 27.8861 20.3636C29.0771 19.6464 29.8322 18.3505 29.8322 16.8998H25.1003C25.1003 22.4997 20.5603 27.0397 14.9604 27.0397Z" fill="#8A4571"/>
<path d="M36.592 5.4079H27.1282V0.675964H36.592V5.4079Z" fill="#8A4571"/>
<path d="M10.9045 16.8997H9.55249C9.55249 13.918 11.9786 11.4918 14.9604 11.4918V12.8438C12.7236 12.8438 10.9045 14.6629 10.9045 16.8997Z" fill="#1C1C1C"/>
<path d="M39.296 14.8718H32.5361V11.4918H39.296V14.8718Z" fill="#8A4571"/>
<path d="M29.8323 2.70398H31.1843V5.40794H29.8323V2.70398Z" fill="#1C1C1C"/>
<path d="M32.5361 2.70398H33.8881V5.40794H32.5361V2.70398Z" fill="#1C1C1C"/>
<path d="M39.296 14.8718H37.9441V13.5198H39.296V14.8718ZM36.5921 14.8718H35.2401V13.5198H36.5921V14.8718ZM33.8881 14.8718H32.5361V13.5198H33.8881V14.8718Z" fill="#1C1C1C"/>
<path d="M32.5361 10.8159H39.296V12.1678H32.5361V10.8159Z" fill="#1C1C1C"/>
<path d="M39.9721 0H23.7483C22.6302 0 21.7203 0.909884 21.7203 2.02797V8.47625C19.8127 6.94919 17.4271 6.08392 14.9604 6.08392C8.9968 6.08392 4.14453 10.9362 4.14453 16.8998C4.14453 22.8634 8.9968 27.7156 14.9604 27.7156C20.6962 27.7156 25.3903 23.2244 25.7418 17.5758H39.9721C41.0901 17.5758 42 16.6659 42 15.5478V2.02797C42 0.909884 41.0901 0 39.9721 0ZM14.9604 26.3637C9.74174 26.3637 5.49651 22.1184 5.49651 16.8998C5.49651 11.6811 9.74174 7.4359 14.9604 7.4359C17.5008 7.4359 19.9465 8.47828 21.7203 10.2906V12.4254C20.2662 10.2359 17.7806 8.78789 14.9604 8.78789C10.4874 8.78789 6.8485 12.4267 6.8485 16.8998C6.8485 21.3728 10.4874 25.0117 14.9604 25.0117C19.2502 25.0117 22.7634 21.6628 23.0446 17.4426C23.2649 17.5244 23.5002 17.5758 23.7483 17.5758H24.3898C24.041 22.4787 19.9506 26.3637 14.9604 26.3637ZM21.7203 16.8998C21.7203 20.6272 18.6878 23.6597 14.9604 23.6597C11.233 23.6597 8.20048 20.6272 8.20048 16.8998C8.20048 13.1724 11.233 10.1399 14.9604 10.1399C18.6878 10.1399 21.7203 13.1724 21.7203 16.8998ZM40.6481 15.5478C40.6481 15.9209 40.3452 16.2238 39.9721 16.2238H23.7483C23.3751 16.2238 23.0723 15.9209 23.0723 15.5478V2.02797C23.0723 1.65483 23.3751 1.35198 23.7483 1.35198H39.9721C40.3452 1.35198 40.6481 1.65483 40.6481 2.02797V15.5478Z" fill="#1C1C1C"/>
<path d="M13.6084 21.9116L11.1025 19.4057L12.0584 18.4498L13.6084 19.9999L19.2144 14.3939L20.1703 15.3497L13.6084 21.9116Z" fill="#1C1C1C"/>
</svg>
