<svg width="32" height="31" viewBox="0 0 32 31" fill="none" xmlns="http://www.w3.org/2000/svg">
<circle cx="15.9001" cy="15.3" r="15.3" fill="#B24293"/>
<path d="M13.934 15.5C13.934 14.3034 14.9037 13.3332 16.1004 13.3332C17.297 13.3332 18.2673 14.3034 18.2673 15.5C18.2673 16.6966 17.297 17.6668 16.1004 17.6668C14.9037 17.6668 13.934 16.6966 13.934 15.5ZM12.7626 15.5C12.7626 17.3434 14.2569 18.8377 16.1004 18.8377C17.9438 18.8377 19.4382 17.3434 19.4382 15.5C19.4382 13.6566 17.9438 12.1623 16.1004 12.1623C14.2569 12.1623 12.7626 13.6566 12.7626 15.5ZM18.7903 12.03C18.7902 12.1843 18.8359 12.3351 18.9216 12.4634C19.0072 12.5917 19.129 12.6917 19.2715 12.7508C19.414 12.8099 19.5708 12.8254 19.7222 12.7954C19.8735 12.7653 20.0125 12.6911 20.1216 12.5821C20.2308 12.473 20.3051 12.3341 20.3353 12.1828C20.3654 12.0315 20.3501 11.8746 20.2911 11.7321C20.2321 11.5895 20.1322 11.4677 20.0039 11.3819C19.8757 11.2962 19.7249 11.2504 19.5706 11.2503H19.5703C19.3635 11.2504 19.1652 11.3326 19.019 11.4788C18.8727 11.6249 18.7904 11.8232 18.7903 12.03ZM13.4743 20.7908C12.8405 20.762 12.496 20.6564 12.2671 20.5672C11.9636 20.4491 11.7471 20.3084 11.5194 20.081C11.2918 19.8537 11.1509 19.6374 11.0332 19.3339C10.944 19.1051 10.8384 18.7606 10.8096 18.1268C10.7781 17.4417 10.7718 17.2359 10.7718 15.5001C10.7718 13.7642 10.7786 13.559 10.8096 12.8733C10.8385 12.2395 10.9448 11.8957 11.0332 11.6662C11.1514 11.3627 11.2921 11.1462 11.5194 10.9185C11.7468 10.6909 11.9631 10.55 12.2671 10.4323C12.4959 10.3431 12.8405 10.2375 13.4743 10.2087C14.1594 10.1772 14.3653 10.1709 16.1004 10.1709C17.8355 10.1709 18.0415 10.1777 18.7272 10.2087C19.361 10.2376 19.7049 10.3439 19.9344 10.4323C20.2379 10.55 20.4544 10.6912 20.6821 10.9185C20.9097 11.1459 21.0501 11.3627 21.1683 11.6662C21.2575 11.895 21.3631 12.2395 21.3919 12.8733C21.4234 13.559 21.4297 13.7642 21.4297 15.5001C21.4297 17.2359 21.4234 17.4411 21.3919 18.1268C21.363 18.7606 21.2569 19.105 21.1683 19.3339C21.0501 19.6374 20.9094 19.8539 20.6821 20.081C20.4547 20.3082 20.2379 20.4491 19.9344 20.5672C19.7056 20.6565 19.361 20.762 18.7272 20.7908C18.0421 20.8224 17.8362 20.8286 16.1004 20.8286C14.3645 20.8286 14.1592 20.8224 13.4743 20.7908ZM13.4204 9.03936C12.7284 9.07088 12.2556 9.1806 11.8426 9.34128C11.415 9.50721 11.0529 9.72982 10.6912 10.091C10.3294 10.4522 10.1073 10.8148 9.94139 11.2424C9.7807 11.6556 9.67098 12.1282 9.63946 12.8202C9.60743 13.5132 9.6001 13.7348 9.6001 15.5C9.6001 17.2652 9.60743 17.4868 9.63946 18.1798C9.67098 18.8718 9.7807 19.3444 9.94139 19.7576C10.1073 20.1849 10.3294 20.548 10.6912 20.909C11.0529 21.27 11.415 21.4923 11.8426 21.6587C12.2564 21.8194 12.7284 21.9291 13.4204 21.9606C14.1139 21.9921 14.3351 22 16.1004 22C17.8656 22 18.0872 21.9927 18.7803 21.9606C19.4723 21.9291 19.9449 21.8194 20.3581 21.6587C20.7855 21.4923 21.1478 21.2702 21.5096 20.909C21.8713 20.5478 22.0929 20.1849 22.2593 19.7576C22.42 19.3444 22.5303 18.8718 22.5613 18.1798C22.5928 17.4862 22.6001 17.2652 22.6001 15.5C22.6001 13.7348 22.5928 13.5132 22.5613 12.8202C22.5297 12.1282 22.42 11.6554 22.2593 11.2424C22.0929 10.8151 21.8708 10.4528 21.5096 10.091C21.1484 9.72925 20.7855 9.50721 20.3586 9.34128C19.9449 9.1806 19.4723 9.07036 18.7808 9.03936C18.0877 9.00785 17.8661 9 16.1009 9C14.3356 9 14.1139 9.00733 13.4204 9.03936Z" fill="white"/>
</svg>
