<svg width="31" height="31" viewBox="0 0 31 31" fill="none" xmlns="http://www.w3.org/2000/svg">
<circle cx="15.3" cy="15.3" r="15.3" fill="#1C1C1C"/>
<g clip-path="url(#clip0_110_517)">
<path d="M15.7876 9.01097C16.4965 9 17.2013 9.0065 17.9053 9C17.948 9.82916 18.2462 10.6738 18.8531 11.26C19.4588 11.8608 20.3156 12.1358 21.1492 12.2289V14.41C20.368 14.3844 19.5831 14.2219 18.8742 13.8856C18.5655 13.7458 18.2779 13.5658 17.9963 13.3818C17.9927 14.9646 18.0028 16.5453 17.9862 18.1215C17.9439 18.8788 17.6941 19.6324 17.2537 20.2564C16.5452 21.2952 15.3155 21.9724 14.0525 21.9935C13.2777 22.0378 12.5038 21.8265 11.8437 21.4373C10.7496 20.7922 9.9798 19.6112 9.86768 18.3438C9.85468 18.0728 9.85021 17.8022 9.86118 17.5378C9.95868 16.5071 10.4685 15.5211 11.2599 14.8504C12.1569 14.0692 13.4134 13.6971 14.5899 13.9173C14.6009 14.7196 14.5688 15.5211 14.5688 16.3235C14.0313 16.1496 13.4033 16.1983 12.9336 16.5246C12.5908 16.7468 12.3304 17.0872 12.1947 17.4723C12.0826 17.747 12.1146 18.0521 12.1211 18.3438C12.2499 19.2326 13.1047 19.9797 14.0171 19.8989C14.622 19.8924 15.2017 19.5414 15.517 19.0275C15.619 18.8475 15.7331 18.6635 15.7392 18.4518C15.7924 17.4829 15.7713 16.5181 15.7778 15.5492C15.7823 13.3656 15.7713 11.1881 15.788 9.01138L15.7876 9.01097Z" fill="white"/>
</g>
<defs>
<clipPath id="clip0_110_517">
<rect width="13" height="13" fill="white" transform="translate(9 9)"/>
</clipPath>
</defs>
</svg>
