<svg width="160" height="41" viewBox="0 0 160 41" fill="none" xmlns="http://www.w3.org/2000/svg">
<g clip-path="url(#clip0_83_1657)">
<path d="M86.8845 8.62406H83.4395V34.2505L83.5243 34.7191V34.8906H93.9556V31.4044H86.8845V8.62406Z" fill="#8A4571"/>
<path d="M55.579 8.65263L49.413 25.7579L43.247 8.65263H39.5813L49.4809 35.7821L59.2504 8.65263H55.579Z" fill="#8A4571"/>
<path d="M68.6296 7.76108L58.7922 35.0677H62.4636L63.4366 32.3702C64.999 31.33 66.8291 30.7755 68.7003 30.7755C70.5715 30.7755 72.4016 31.33 73.9641 32.3702L74.9314 35.0677H78.631L68.6296 7.76108ZM68.6975 27.3581C67.4624 27.3587 66.2337 27.5377 65.0488 27.8896L68.6975 17.751L72.3518 27.8896C71.165 27.5373 69.9345 27.3583 68.6975 27.3581Z" fill="#8A4571"/>
<path d="M117.454 8.44689H113.998V34.7134H117.454V8.44689Z" fill="#8A4571"/>
<path d="M102.164 8.44689H98.7188V34.0733L98.8036 34.542V34.7134H109.235V31.2329H102.164V8.44689Z" fill="#8A4571"/>
<path d="M150.027 7.58963L140.189 34.8906H143.855L145.196 31.1758C148.332 32.4787 151.851 32.4787 154.988 31.1758L156.329 34.902H160L150.027 7.58963ZM150.072 28.7354C148.794 28.7345 147.528 28.4761 146.35 27.9753L146.44 27.7239L150.095 17.5853L153.749 27.7239L153.834 27.9582C152.644 28.4694 151.365 28.7318 150.072 28.7297V28.7354Z" fill="#8A4571"/>
<path d="M137.418 8.44689H123.841V11.9388H133.594C132.775 14.8171 131.268 17.4474 129.204 19.597C123.321 25.9465 123.241 34.3762 123.241 34.7191H136.993V31.2329H127.026C127.711 27.7744 129.312 24.5685 131.659 21.9573C137.633 15.5107 137.418 8.44689 137.418 8.44689Z" fill="#8A4571"/>
<path d="M12.1567 0.491497C10.2107 -0.0571678 8.16384 -0.133538 6.18303 0.268609C4.84235 0.571509 3.63742 1.14302 3.63742 2.17173V32.4102C3.62487 32.5469 3.65321 32.6842 3.71876 32.8045C3.78432 32.9247 3.88407 33.0223 4.00512 33.0846C4.00512 33.0846 19.2844 39.4341 21.864 41L22.6277 40.5771V6.74951L5.52683 2.36033C3.39418 1.76596 4.83669 0.937274 6.46588 0.571509C8.20058 0.207033 9.99515 0.252016 11.7098 0.702956L29.003 4.76066V37.3709L29.5348 37.108V4.57207L12.1567 0.491497ZM5.01771 3.45763L5.61734 3.69766V32.576L5.0064 32.2959L5.01771 3.45763Z" fill="#8A4571"/>
<path d="M0 16.0594V16.6309C0.130109 19.397 1.09744 20.5743 1.21058 20.7286L2.87371 21.6545V20.14L2.1666 19.7856C1.97992 19.5113 1.34634 18.4083 1.32372 16.2023C1.30433 15.3899 1.49959 14.587 1.88941 13.8762L2.87371 14.2877V12.7961L1.65182 12.276C1.65182 12.276 0.124452 12.6418 0 16.0594Z" fill="#8A4571"/>
<path d="M24.698 6.12085V39.5484L25.292 39.2512V5.9094L7.30865 1.37733L6.53931 1.52021L24.698 6.12085Z" fill="#8A4571"/>
<path d="M9.54888 0.960133L8.77954 1.10301L26.8025 5.46933V38.4625L27.3738 38.171V5.26359L9.54888 0.960133Z" fill="#8A4571"/>
</g>
<defs>
<clipPath id="clip0_83_1657">
<rect width="160" height="41" fill="white"/>
</clipPath>
</defs>
</svg>
