<svg width="28" height="28" viewBox="0 0 28 28" fill="none" xmlns="http://www.w3.org/2000/svg">
<path d="M10.7187 4.375L10.7187 8.96875L6.125 8.96875C5.95095 8.96875 5.78403 9.03789 5.66096 9.16096C5.53789 9.28403 5.46875 9.45095 5.46875 9.625L5.46875 22.9687L4.375 22.9687C4.20095 22.9687 4.03403 23.0379 3.91096 23.161C3.78789 23.284 3.71875 23.451 3.71875 23.625C3.71875 23.799 3.78789 23.966 3.91096 24.089C4.03403 24.2121 4.20095 24.2812 4.375 24.2812L23.625 24.2812C23.799 24.2812 23.966 24.2121 24.089 24.089C24.2121 23.966 24.2812 23.799 24.2812 23.625C24.2812 23.451 24.2121 23.284 24.089 23.161C23.966 23.0379 23.799 22.9687 23.625 22.9687L22.5312 22.9687L22.5312 13.125C22.5312 12.951 22.4621 12.784 22.339 12.661C22.216 12.5379 22.049 12.4687 21.875 12.4687L17.2812 12.4687L17.2812 4.375C17.2812 4.20095 17.2121 4.03403 17.089 3.91096C16.966 3.78789 16.799 3.71875 16.625 3.71875L11.375 3.71875C11.201 3.71875 11.034 3.78789 10.911 3.91096C10.7879 4.03403 10.7187 4.20095 10.7187 4.375ZM6.78125 10.2812L10.7187 10.2812L10.7187 22.9687L6.78125 22.9687L6.78125 10.2812ZM21.2187 13.7812L21.2187 22.9687L17.2812 22.9687L17.2812 13.7812L21.2187 13.7812ZM15.9687 5.03125L15.9687 22.9687L12.0312 22.9687L12.0312 5.03125L15.9687 5.03125Z" fill="#1C1C1C"/>
</svg>
