<svg width="23" height="23" viewBox="0 0 23 23" fill="none" xmlns="http://www.w3.org/2000/svg">
<path d="M21.2364 15.5328L16.0695 13.2173C15.8354 13.117 15.58 13.0767 15.3264 13.1C15.0727 13.1233 14.8289 13.2095 14.617 13.3508C14.5955 13.3646 14.5751 13.3799 14.5558 13.3967L11.8553 15.6936C11.8273 15.7089 11.7961 15.7174 11.7642 15.7186C11.7323 15.7197 11.7006 15.7134 11.6716 15.7002C9.93578 14.8623 8.13765 13.0752 7.29656 11.3634C7.28255 11.3348 7.27527 11.3034 7.27527 11.2716C7.27527 11.2397 7.28255 11.2083 7.29656 11.1797L9.60109 8.44531C9.61763 8.42508 9.63297 8.4039 9.64703 8.38187C9.78636 8.16915 9.87052 7.92507 9.8919 7.67167C9.91329 7.41827 9.87123 7.16354 9.76953 6.93047L7.47047 1.77234C7.3399 1.46785 7.11411 1.21392 6.82697 1.04866C6.53983 0.883395 6.20684 0.815717 5.87797 0.855781C4.44868 1.04368 3.13672 1.74559 2.18724 2.83033C1.23777 3.91507 0.715751 5.30842 0.718748 6.75C0.718748 15.3141 7.68594 22.2812 16.25 22.2812C17.6915 22.284 19.0847 21.7619 20.1694 20.8125C21.2541 19.8631 21.9561 18.5512 22.1442 17.122C22.1842 16.7947 22.1174 16.4632 21.9539 16.1769C21.7903 15.8905 21.5387 15.6646 21.2364 15.5328ZM16.25 20.9687C8.41 20.9687 2.03125 14.59 2.03125 6.75C2.02759 5.62773 2.43266 4.54253 3.17077 3.69714C3.90887 2.85174 4.92953 2.304 6.04203 2.15625H6.06719C6.11126 2.15707 6.15406 2.17119 6.18997 2.19676C6.22588 2.22233 6.25323 2.25815 6.26844 2.29953L8.57625 7.45219C8.58941 7.48083 8.59622 7.51199 8.59622 7.54351C8.59622 7.57504 8.58941 7.60619 8.57625 7.63484L6.26734 10.3758C6.25012 10.3953 6.23439 10.4162 6.22031 10.4381C6.07583 10.6587 5.99075 10.9128 5.97332 11.1759C5.95588 11.439 6.00667 11.7021 6.12078 11.9398C7.09094 13.9261 9.0925 15.9123 11.1006 16.8825C11.3397 16.996 11.6041 17.0455 11.8681 17.0264C12.132 17.0072 12.3865 16.92 12.6067 16.7731C12.6275 16.7589 12.6483 16.7436 12.668 16.7272L15.3673 14.4303C15.394 14.416 15.4234 14.4076 15.4536 14.4057C15.4839 14.4038 15.5141 14.4085 15.5423 14.4194L20.7103 16.7348C20.7525 16.7528 20.788 16.7836 20.8118 16.8229C20.8355 16.8621 20.8463 16.9079 20.8427 16.9536C20.6957 18.0666 20.1485 19.088 19.3032 19.827C18.458 20.5659 17.3727 20.9718 16.25 20.9687Z" fill="#1C1C1C"/>
</svg>
