<svg width="24" height="24" viewBox="0 0 24 24" fill="none" xmlns="http://www.w3.org/2000/svg">
<path d="M10.3201 5.0625C10.1662 4.90861 9.97597 4.79603 9.76701 4.73518C9.55806 4.67433 9.33713 4.66717 9.12468 4.71437C8.91223 4.76157 8.71511 4.86161 8.55158 5.00522C8.38806 5.14882 8.2634 5.33136 8.18915 5.53594L3.26727 19.0753C3.19655 19.2704 3.17372 19.4796 3.20069 19.6853C3.22766 19.891 3.30365 20.0873 3.42226 20.2575C3.54088 20.4278 3.69864 20.5671 3.88229 20.6636C4.06594 20.7602 4.2701 20.8113 4.47758 20.8125C4.63015 20.8121 4.78147 20.7852 4.92477 20.7328L18.4604 15.8109C18.6646 15.7362 18.8467 15.6111 18.9898 15.4474C19.1329 15.2836 19.2324 15.0864 19.2791 14.874C19.3258 14.6616 19.3183 14.4409 19.2571 14.2322C19.1959 14.0235 19.0831 13.8336 18.9291 13.68L10.3201 5.0625ZM4.5404 19.6753C4.51029 19.6865 4.47763 19.6887 4.44627 19.6819C4.41492 19.675 4.38619 19.6593 4.36349 19.6366C4.34079 19.6139 4.32508 19.5852 4.31822 19.5538C4.31136 19.5225 4.31363 19.4898 4.32477 19.4597L5.7479 15.5438L8.45633 18.2512L4.5404 19.6753ZM9.62258 17.8275L6.17258 14.3766L7.5479 10.5938L13.4063 16.4522L9.62258 17.8275ZM18.1876 14.6316C18.1819 14.6594 18.1691 14.6853 18.1504 14.7067C18.1316 14.7281 18.1076 14.7442 18.0807 14.7534L14.5726 16.0312L7.96883 9.42656L9.24665 5.92406C9.25572 5.89707 9.27177 5.87297 9.29318 5.8542C9.31459 5.83543 9.34058 5.82266 9.36852 5.81719C9.38128 5.81552 9.3942 5.81552 9.40696 5.81719C9.42884 5.81708 9.45052 5.82144 9.47066 5.82998C9.49081 5.83852 9.50901 5.85107 9.52415 5.86688L18.1379 14.4806C18.1584 14.4994 18.1738 14.5232 18.1825 14.5496C18.1912 14.576 18.1929 14.6043 18.1876 14.6316ZM15.1876 6.75C15.2009 6.27214 15.317 5.80275 15.5279 5.37375C15.991 4.4475 16.8685 3.9375 18.0001 3.9375C18.7004 3.9375 19.1748 3.68062 19.4513 3.15188C19.5917 2.87087 19.6722 2.56375 19.6876 2.25C19.6876 2.10082 19.7468 1.95774 19.8523 1.85225C19.9578 1.74676 20.1009 1.6875 20.2501 1.6875C20.3993 1.6875 20.5423 1.74676 20.6478 1.85225C20.7533 1.95774 20.8126 2.10082 20.8126 2.25C20.8126 3.22312 20.2248 5.0625 18.0001 5.0625C17.2998 5.0625 16.8254 5.31938 16.5488 5.84812C16.408 6.12896 16.3275 6.43618 16.3126 6.75C16.3126 6.89918 16.2533 7.04226 16.1478 7.14775C16.0423 7.25324 15.8993 7.3125 15.7501 7.3125C15.6009 7.3125 15.4578 7.25324 15.3523 7.14775C15.2468 7.04226 15.1876 6.89918 15.1876 6.75ZM12.9376 3.75V1.5C12.9376 1.35082 12.9968 1.20774 13.1023 1.10225C13.2078 0.996763 13.3509 0.9375 13.5001 0.9375C13.6493 0.9375 13.7923 0.996763 13.8978 1.10225C14.0033 1.20774 14.0626 1.35082 14.0626 1.5V3.75C14.0626 3.89918 14.0033 4.04226 13.8978 4.14775C13.7923 4.25324 13.6493 4.3125 13.5001 4.3125C13.3509 4.3125 13.2078 4.25324 13.1023 4.14775C12.9968 4.04226 12.9376 3.89918 12.9376 3.75ZM22.1476 11.6025C22.2029 11.654 22.2472 11.7161 22.2779 11.7851C22.3087 11.8541 22.3252 11.9286 22.3265 12.0041C22.3279 12.0796 22.314 12.1547 22.2857 12.2247C22.2574 12.2947 22.2153 12.3584 22.1619 12.4118C22.1084 12.4652 22.0448 12.5073 21.9748 12.5356C21.9047 12.5639 21.8297 12.5778 21.7542 12.5764C21.6787 12.5751 21.6042 12.5586 21.5352 12.5278C21.4662 12.4971 21.4041 12.4528 21.3526 12.3975L19.8526 10.8975C19.7532 10.7909 19.6991 10.6498 19.7017 10.5041C19.7043 10.3584 19.7633 10.2193 19.8664 10.1163C19.9694 10.0132 20.1085 9.95419 20.2542 9.95162C20.3999 9.94905 20.541 10.0031 20.6476 10.1025L22.1476 11.6025ZM22.6782 7.28344L20.4282 8.03344C20.3577 8.05852 20.283 8.06929 20.2083 8.06513C20.1336 8.06097 20.0605 8.04195 19.9933 8.00919C19.926 7.97644 19.866 7.9306 19.8167 7.87436C19.7674 7.81812 19.7297 7.75261 19.7061 7.68166C19.6824 7.61071 19.6731 7.53575 19.6787 7.46117C19.6843 7.38658 19.7048 7.31386 19.7388 7.24728C19.7729 7.18069 19.8199 7.12156 19.8771 7.07336C19.9343 7.02516 20.0006 6.98885 20.072 6.96656L22.322 6.21656C22.4625 6.17267 22.6147 6.18566 22.7458 6.25275C22.8769 6.31983 22.9765 6.43565 23.0231 6.57534C23.0698 6.71503 23.0598 6.86744 22.9953 6.99984C22.9308 7.13223 22.817 7.23406 22.6782 7.28344Z" fill="#1C1C1C"/>
</svg>
