<svg width="24" height="24" viewBox="0 0 24 24" fill="none" xmlns="http://www.w3.org/2000/svg">
<path d="M20.25 6.9375H16.3819C16.5804 6.81288 16.7685 6.67243 16.9444 6.5175C17.2096 6.28118 17.4233 5.99271 17.572 5.67009C17.7207 5.34748 17.8013 4.99767 17.8088 4.6425C17.8203 4.2518 17.7519 3.86287 17.6078 3.49952C17.4637 3.13617 17.247 2.80606 16.9709 2.52941C16.6947 2.25276 16.365 2.0354 16.002 1.89063C15.6389 1.74586 15.2501 1.67674 14.8594 1.6875C14.5042 1.69494 14.1544 1.77554 13.8318 1.92427C13.5092 2.07299 13.2207 2.28664 12.9844 2.55188C12.5501 3.06436 12.2162 3.654 12 4.29C11.7843 3.65447 11.451 3.06517 11.0175 2.55282C10.781 2.28718 10.4923 2.07322 10.1694 1.92432C9.84639 1.77543 9.49618 1.69481 9.14062 1.6875C8.74967 1.67623 8.36054 1.74494 7.99709 1.88941C7.63364 2.03389 7.30353 2.25109 7.02702 2.52769C6.7505 2.8043 6.53341 3.13447 6.38905 3.49797C6.24469 3.86146 6.1761 4.25062 6.1875 4.64157C6.19494 4.99673 6.27554 5.34655 6.42426 5.66916C6.57299 5.99177 6.78664 6.28025 7.05188 6.51657C7.22758 6.6717 7.41571 6.81217 7.61438 6.93657H3.75C3.57756 6.93657 3.40681 6.97055 3.24751 7.03656C3.08821 7.10258 2.94348 7.19934 2.82159 7.32132C2.6997 7.4433 2.60304 7.5881 2.53714 7.74744C2.47124 7.90679 2.43738 8.07757 2.4375 8.25V11.25C2.4375 11.5981 2.57578 11.9319 2.82192 12.1781C3.06806 12.4242 3.4019 12.5625 3.75 12.5625H3.9375V18.75C3.9375 19.0981 4.07578 19.4319 4.32192 19.6781C4.56806 19.9242 4.9019 20.0625 5.25 20.0625H18.75C19.0981 20.0625 19.4319 19.9242 19.6781 19.6781C19.9242 19.4319 20.0625 19.0981 20.0625 18.75V12.5625H20.25C20.5981 12.5625 20.9319 12.4242 21.1781 12.1781C21.4242 11.9319 21.5625 11.5981 21.5625 11.25V8.25C21.5625 7.90191 21.4242 7.56807 21.1781 7.32193C20.9319 7.07578 20.5981 6.9375 20.25 6.9375ZM12.7284 5.90625C12.9394 4.77 13.3181 3.86719 13.8244 3.29532C13.9598 3.1458 14.1247 3.02578 14.3085 2.94272C14.4924 2.85965 14.6914 2.81533 14.8931 2.8125H14.9447C15.1779 2.81253 15.4088 2.85935 15.6236 2.95018C15.8384 3.04102 16.0328 3.17403 16.1953 3.34134C16.3578 3.50865 16.4851 3.70686 16.5697 3.92424C16.6542 4.14161 16.6943 4.37374 16.6875 4.60688C16.6843 4.80883 16.6396 5.00795 16.556 5.19183C16.4724 5.37571 16.3519 5.5404 16.2019 5.67563C15.1969 6.5625 13.4925 6.82782 12.5944 6.90469C12.6178 6.63375 12.6562 6.28875 12.7284 5.90625ZM7.82344 3.32344C8.15066 2.99741 8.59339 2.81378 9.05531 2.8125H9.10687C9.30882 2.81569 9.50795 2.86045 9.69183 2.944C9.87571 3.02755 10.0404 3.1481 10.1756 3.29813C11.0625 4.30313 11.3278 6.0075 11.4047 6.90563C11.1337 6.88219 10.7887 6.84188 10.41 6.77157C9.27375 6.5625 8.37094 6.18188 7.79906 5.67469C7.64881 5.5398 7.52803 5.37533 7.4443 5.19158C7.36058 5.00784 7.31571 4.80878 7.3125 4.60688C7.30603 4.36946 7.348 4.13322 7.43584 3.91256C7.52369 3.6919 7.65557 3.49145 7.82344 3.32344ZM3.5625 11.25V8.25C3.5625 8.20028 3.58225 8.15258 3.61742 8.11742C3.65258 8.08226 3.70027 8.0625 3.75 8.0625H11.4375V11.4375H3.75C3.70027 11.4375 3.65258 11.4178 3.61742 11.3826C3.58225 11.3474 3.5625 11.2997 3.5625 11.25ZM5.0625 18.75V12.5625H11.4375V18.9375H5.25C5.20027 18.9375 5.15258 18.9177 5.11742 18.8826C5.08225 18.8474 5.0625 18.7997 5.0625 18.75ZM18.9375 18.75C18.9375 18.7997 18.9177 18.8474 18.8826 18.8826C18.8474 18.9177 18.7997 18.9375 18.75 18.9375H12.5625V12.5625H18.9375V18.75ZM20.4375 11.25C20.4375 11.2997 20.4177 11.3474 20.3826 11.3826C20.3474 11.4178 20.2997 11.4375 20.25 11.4375H12.5625V8.0625H20.25C20.2997 8.0625 20.3474 8.08226 20.3826 8.11742C20.4177 8.15258 20.4375 8.20028 20.4375 8.25V11.25Z" fill="#1C1C1C"/>
</svg>
