<svg width="24" height="24" viewBox="0 0 24 24" fill="none" xmlns="http://www.w3.org/2000/svg">
<path d="M12.5625 9.375C12.5625 9.56042 12.5075 9.74168 12.4045 9.89585C12.3015 10.05 12.1551 10.1702 11.9837 10.2411C11.8124 10.3121 11.6239 10.3307 11.4421 10.2945C11.2602 10.2583 11.0932 10.169 10.9621 10.0379C10.831 9.9068 10.7417 9.73975 10.7055 9.5579C10.6693 9.37604 10.6879 9.18754 10.7588 9.01623C10.8298 8.84493 10.95 8.69851 11.1041 8.5955C11.2583 8.49248 11.4396 8.4375 11.625 8.4375C11.8736 8.4375 12.1121 8.53627 12.2879 8.71209C12.4637 8.8879 12.5625 9.12636 12.5625 9.375ZM21.5625 12.1359C21.521 14.6132 20.5223 16.9783 18.7757 18.7356C17.0291 20.4929 14.6701 21.5059 12.1931 21.5625H11.9934C9.64792 21.5783 7.37952 20.7257 5.62498 19.1691C5.56798 19.1204 5.52129 19.0608 5.48765 18.9938C5.45401 18.9268 5.4341 18.8538 5.42909 18.779C5.42407 18.7042 5.43405 18.6292 5.45845 18.5583C5.48285 18.4874 5.52117 18.4221 5.57115 18.3663C5.62114 18.3104 5.68178 18.2651 5.74953 18.233C5.81727 18.2009 5.89074 18.1827 5.96563 18.1794C6.04052 18.1761 6.11531 18.1878 6.1856 18.2138C6.2559 18.2399 6.32029 18.2797 6.37498 18.3309C6.99286 18.8831 7.69117 19.338 8.44592 19.68L11.1647 15.9403C8.92123 14.8744 6.46029 15.2906 5.08967 15.5231C4.57122 15.6137 4.03774 15.5562 3.55052 15.3572C3.0633 15.1582 2.64209 14.8257 2.33529 14.3981C2.32789 14.3885 2.321 14.3785 2.31467 14.3681L1.02186 12.3056C0.982557 12.2427 0.956106 12.1726 0.944026 12.0993C0.931945 12.0261 0.934474 11.9512 0.951468 11.879C0.968461 11.8067 0.999582 11.7386 1.04304 11.6784C1.08649 11.6182 1.14143 11.5673 1.20467 11.5284L10.6875 5.68594V3C10.6875 2.85082 10.7467 2.70774 10.8522 2.60225C10.9577 2.49676 11.1008 2.4375 11.25 2.4375H12C13.2673 2.43737 14.5219 2.68914 15.6911 3.17818C16.8602 3.66722 17.9204 4.38377 18.8102 5.28618C19.7 6.18859 20.4015 7.25885 20.874 8.43477C21.3465 9.61068 21.5805 10.8688 21.5625 12.1359ZM20.4375 12.12C20.4534 11.0019 20.2469 9.89182 19.83 8.85424C19.4131 7.81667 18.7941 6.87231 18.009 6.07606C17.2239 5.27981 16.2884 4.64756 15.2568 4.21605C14.2252 3.78454 13.1182 3.56239 12 3.5625H11.8125V6C11.8124 6.09611 11.7878 6.1906 11.7408 6.27446C11.6939 6.35833 11.6263 6.42877 11.5444 6.47906L2.27717 12.1819L3.25873 13.7512C3.4438 14.004 3.69587 14.1999 3.98646 14.3169C4.27705 14.4338 4.59456 14.4672 4.90311 14.4131C6.38623 14.1628 9.44248 13.6462 12.1434 15.1837C13.162 15.1466 14.1265 14.716 14.8341 13.9823C15.5417 13.2487 15.9372 12.2693 15.9375 11.25C15.9375 11.1008 15.9967 10.9577 16.1022 10.8523C16.2077 10.7468 16.3508 10.6875 16.5 10.6875C16.6492 10.6875 16.7922 10.7468 16.8977 10.8523C17.0032 10.9577 17.0625 11.1008 17.0625 11.25C17.0609 12.5413 16.5665 13.7833 15.6802 14.7224C14.7938 15.6615 13.5825 16.2269 12.2934 16.3031L9.54092 20.0878C10.3945 20.3381 11.2813 20.456 12.1706 20.4375C14.356 20.387 16.437 19.4929 17.978 17.9425C19.5189 16.3921 20.4003 14.3056 20.4375 12.12Z" fill="#1C1C1C"/>
</svg>
