<svg width="24" height="24" viewBox="0 0 24 24" fill="none" xmlns="http://www.w3.org/2000/svg">
<path d="M9.75 3.1875H5.25C4.9019 3.1875 4.56806 3.32578 4.32192 3.57192C4.07578 3.81806 3.9375 4.1519 3.9375 4.5V19.5C3.9375 19.8481 4.07578 20.1819 4.32192 20.4281C4.56806 20.6742 4.9019 20.8125 5.25 20.8125H9.75C9.92236 20.8125 10.093 20.7786 10.2523 20.7126C10.4115 20.6466 10.5562 20.55 10.6781 20.4281C10.8 20.3062 10.8966 20.1615 10.9626 20.0023C11.0286 19.843 11.0625 19.6724 11.0625 19.5V4.5C11.0625 4.32764 11.0286 4.15697 10.9626 3.99773C10.8966 3.83849 10.8 3.6938 10.6781 3.57192C10.5562 3.45005 10.4115 3.35337 10.2523 3.28741C10.093 3.22145 9.92236 3.1875 9.75 3.1875ZM5.0625 7.3125H9.9375V16.6875H5.0625V7.3125ZM5.25 4.3125H9.75C9.79973 4.3125 9.84742 4.33225 9.88258 4.36742C9.91775 4.40258 9.9375 4.45027 9.9375 4.5V6.1875H5.0625V4.5C5.0625 4.45027 5.08225 4.40258 5.11742 4.36742C5.15258 4.33225 5.20027 4.3125 5.25 4.3125ZM9.75 19.6875H5.25C5.20027 19.6875 5.15258 19.6677 5.11742 19.6326C5.08225 19.5974 5.0625 19.5497 5.0625 19.5V17.8125H9.9375V19.5C9.9375 19.5497 9.91775 19.5974 9.88258 19.6326C9.84742 19.6677 9.79973 19.6875 9.75 19.6875ZM21.5344 18.2812L18.4228 3.48375C18.3877 3.31435 18.3194 3.15356 18.222 3.01064C18.1245 2.86771 17.9997 2.74547 17.8548 2.65094C17.7099 2.5564 17.5478 2.49145 17.3777 2.45981C17.2076 2.42817 17.0329 2.43046 16.8638 2.46656L12.4753 3.40969C12.1357 3.48434 11.8392 3.68991 11.6502 3.98178C11.4611 4.27366 11.3948 4.6283 11.4656 4.96875L14.5772 19.7634C14.6126 19.9334 14.6814 20.0947 14.7795 20.2379C14.8777 20.3812 15.0033 20.5035 15.1491 20.5978C15.36 20.7358 15.6066 20.8095 15.8588 20.8097C15.9533 20.8102 16.0477 20.8001 16.14 20.7797L20.5284 19.8375C20.8668 19.762 21.1619 19.5565 21.3501 19.2654C21.5383 18.9742 21.6045 18.6208 21.5344 18.2812ZM13.7709 10.47L18.5269 9.44812L19.8506 15.7444L15.0938 16.7634L13.7709 10.47ZM13.1494 7.51125L17.9062 6.48656L18.2953 8.34375L13.5394 9.36562L13.1494 7.51125ZM12.7125 4.51125L17.1 3.56906C17.1131 3.5678 17.1263 3.5678 17.1394 3.56906C17.1744 3.5691 17.2087 3.57954 17.2378 3.59906C17.2593 3.61277 17.2779 3.63074 17.2922 3.65186C17.3066 3.67298 17.3164 3.6968 17.3212 3.72188L17.6728 5.3925L12.9178 6.40687L12.5672 4.74C12.5562 4.69018 12.5653 4.63804 12.5925 4.59488C12.6197 4.55172 12.6628 4.521 12.7125 4.50938V4.51125ZM20.2884 18.7425L15.9 19.6875C15.8765 19.6927 15.8522 19.6932 15.8285 19.6888C15.8049 19.6845 15.7823 19.6754 15.7622 19.6622C15.7407 19.6485 15.7221 19.6305 15.7078 19.6094C15.6934 19.5883 15.6836 19.5644 15.6788 19.5394L15.3272 17.8688L20.0822 16.8469L20.4375 18.5091C20.443 18.5341 20.4435 18.5599 20.439 18.5851C20.4345 18.6103 20.425 18.6343 20.4112 18.6559C20.3973 18.6774 20.3793 18.696 20.3583 18.7105C20.3372 18.7251 20.3135 18.7353 20.2884 18.7406V18.7425Z" fill="#1C1C1C"/>
</svg>
